<svg data-v-423bf9ae="" xmlns="http://www.w3.org/2000/svg" viewBox="0 0 390 90" class="iconLeft"><!----><!----><!----><g data-v-423bf9ae="" id="491f1af8-39f4-4cbd-9809-85139ebb8889" fill="black" transform="matrix(6.430868219789529,0,0,6.430868219789529,160.4734006121393,-7.122186567216055)"><path d="M6.92 3.52L5.63 4.05L5.62 7.27L1.87 7.27L1.87 3.52L0.55 4.06L0.55 12.73L1.87 12.18L1.87 8.64L4.83 8.65L5.61 8.09L5.61 12.73L6.92 12.19L6.92 3.52ZM10.72 6.43L10.72 6.43L10.72 6.43Q9.80 6.36 8.79 6.88L8.79 6.88L8.79 6.88Q7.77 7.40 7.90 8.65L7.90 8.65L9.46 7.95L9.46 7.95Q9.34 7.10 10.09 6.96L10.09 6.96L10.09 6.96Q10.83 6.82 11.25 7.21L11.25 7.21L11.25 7.21Q11.67 7.61 11.61 8.80L11.61 8.80L11.61 8.80Q11.15 8.50 10.53 8.42L10.53 8.42L10.53 8.42Q9.91 8.33 8.90 8.85L8.90 8.85L8.90 8.85Q7.89 9.37 7.64 10.38L7.64 10.38L7.64 10.38Q7.39 11.38 8.17 12.06L8.17 12.06L8.17 12.06Q8.94 12.73 9.67 12.70L9.67 12.70L9.67 12.70Q10.39 12.67 10.75 12.39L10.75 12.39L10.75 12.39Q11.12 12.10 11.63 11.57L11.63 11.57L11.63 11.57Q11.62 12.44 11.83 12.76L11.83 12.76L13.18 12.04L13.18 12.04Q12.84 11.63 12.91 11.02L12.91 11.02L12.91 8.16L12.91 8.16Q12.93 7.49 12.28 6.99L12.28 6.99L12.28 6.99Q11.63 6.50 10.72 6.43ZM11.66 9.32L11.64 9.68L11.64 11.18L11.64 11.18Q10.48 12.11 9.53 11.55L9.53 11.55L9.53 11.55Q8.59 10.99 8.46 10.16L8.46 10.16L8.46 10.16Q8.33 9.34 9.28 9.31L9.28 9.31L9.28 9.31Q10.23 9.28 11.03 10.00L11.03 10.00L11.66 9.32ZM15.22 6.51L13.95 7.03L13.95 12.73L15.27 12.12L15.27 8.05L15.27 8.05Q15.91 7.22 16.50 7.37L16.50 7.37L16.50 7.37Q17.09 7.53 17.17 8.26L17.17 8.26L18.40 7.46L18.40 7.46Q18.26 6.62 17.24 6.50L17.24 6.50L17.24 6.50Q16.23 6.38 15.21 7.73L15.21 7.73L15.22 6.51ZM21.27 6.48L21.27 6.48L21.27 6.48Q20.57 6.57 20.20 6.79L20.20 6.79L20.20 6.79Q19.82 7.01 19.51 7.38L19.51 7.38L19.51 7.38Q19.19 7.76 19.17 8.38L19.17 8.38L19.17 8.38Q19.16 9.00 19.61 9.39L19.61 9.39L19.61 9.39Q20.06 9.77 21.33 10.21L21.33 10.21L21.33 10.21Q22.61 10.64 22.75 11.06L22.75 11.06L22.75 11.06Q22.88 11.48 22.56 11.76L22.56 11.76L22.56 11.76Q22.24 12.04 21.66 11.97L21.66 11.97L21.66 11.97Q21.08 11.90 20.65 11.61L20.65 11.61L20.65 11.61Q20.22 11.32 19.94 10.93L19.94 10.93L19.94 10.93Q19.67 10.55 19.60 10.27L19.60 10.27L18.54 11.06L18.54 11.06Q18.77 11.58 19.12 11.93L19.12 11.93L19.12 11.93Q19.47 12.28 20.00 12.50L20.00 12.50L20.00 12.50Q20.53 12.71 21.27 12.75L21.27 12.75L21.27 12.75Q22.02 12.78 22.60 12.37L22.60 12.37L22.60 12.37Q23.17 11.96 23.48 11.48L23.48 11.48L23.48 11.48Q23.79 11.01 23.77 10.52L23.77 10.52L23.77 10.52Q23.75 10.04 23.33 9.63L23.33 9.63L23.33 9.63Q22.92 9.21 21.56 8.75L21.56 8.75L21.56 8.75Q20.19 8.29 20.14 7.87L20.14 7.87L20.14 7.87Q20.08 7.44 20.62 7.29L20.62 7.29L20.62 7.29Q21.16 7.14 21.90 7.53L21.90 7.53L21.90 7.53Q22.63 7.93 22.59 8.16L22.59 8.16L23.45 7.25L23.45 7.25Q23.18 6.82 22.58 6.60L22.58 6.60L22.58 6.60Q21.97 6.39 21.27 6.48ZM25.87 3.44L24.60 3.95L24.60 12.73L25.93 12.17L25.93 8.05L25.93 8.05Q26.57 7.22 27.56 7.44L27.56 7.44L27.56 7.44Q28.55 7.66 28.51 8.69L28.51 8.69L28.51 12.77L29.80 12.24L29.80 8.32L29.80 8.32Q29.74 6.56 28.31 6.47L28.31 6.47L28.31 6.47Q26.89 6.38 25.87 7.73L25.87 7.73L25.87 3.44ZM32.58 3.55L31.32 4.14L31.32 5.58L32.58 5.06L32.58 3.55ZM32.59 6.54L31.27 7.02L31.27 12.67L32.59 12.21L32.59 6.54ZM35.59 3.60L34.27 4.16L34.27 12.74L35.59 12.14L35.59 3.60Z"></path></g><!----><g data-v-423bf9ae="" id="993a4d4a-9180-453b-9ebb-1d83ca112a39" transform="matrix(1.5001077729405354,0,0,1.5001077729405354,0.994807050549241,-27.00409663533148)" stroke="none" fill="black"><path d="M28.416 76.572a4.01 4.01 0 0 1-2.832-1.172L1.172 50.844A4.02 4.02 0 0 1 0 48a4.03 4.03 0 0 1 1.176-2.848l24.412-24.548a3.978 3.978 0 0 1 5.656.004 4.048 4.048 0 0 1-.004 5.696L9.664 48l21.58 21.704a4.042 4.042 0 0 1 0 5.688 3.978 3.978 0 0 1-2.828 1.18zM67.588 76.572a3.963 3.963 0 0 1-2.828-1.18 4.038 4.038 0 0 1 0-5.697L86.344 48 64.76 26.304a4.037 4.037 0 0 1 0-5.696 3.978 3.978 0 0 1 5.656-.008l24.412 24.552A4.015 4.015 0 0 1 96 48c0 1.068-.42 2.088-1.172 2.844L70.416 75.393a3.96 3.96 0 0 1-2.828 1.179zM38.348 78a4.03 4.03 0 0 1-1.436-.264 4.045 4.045 0 0 1-2.296-5.213l19.868-51.947a3.992 3.992 0 0 1 5.168-2.304c2.06.796 3.088 3.124 2.296 5.204L42.072 75.424A3.983 3.983 0 0 1 38.348 78z"></path></g><!----></svg>